<?xml version="1.0" encoding="UTF-8" standalone="no"?>
<svg
   xmlns:dc="http://purl.org/dc/elements/1.1/"
   xmlns:cc="http://creativecommons.org/ns#"
   xmlns:rdf="http://www.w3.org/1999/02/22-rdf-syntax-ns#"
   xmlns:svg="http://www.w3.org/2000/svg"
   xmlns="http://www.w3.org/2000/svg"
   xmlns:sodipodi="http://sodipodi.sourceforge.net/DTD/sodipodi-0.dtd"
   xmlns:inkscape="http://www.inkscape.org/namespaces/inkscape"
   inkscape:version="1.0 (4035a4fb49, 2020-05-01)"
   sodipodi:docname="logo.svg"
   viewBox="0 0 495 303.35126"
   height="303.35126"
   width="495"
   id="svg833"
   version="1.1">
  <metadata
     id="metadata839">
    <rdf:RDF>
      <cc:Work
         rdf:about="">
        <dc:format>image/svg+xml</dc:format>
        <dc:type
           rdf:resource="http://purl.org/dc/dcmitype/StillImage" />
        <dc:title />
      </cc:Work>
    </rdf:RDF>
  </metadata>
  <defs
     id="defs837" />
  <sodipodi:namedview
     inkscape:current-layer="g841"
     inkscape:window-maximized="1"
     inkscape:window-y="-8"
     inkscape:window-x="-8"
     inkscape:cy="124.57463"
     inkscape:cx="343.54844"
     inkscape:zoom="1.3085938"
     showgrid="false"
     id="namedview835"
     inkscape:window-height="837"
     inkscape:window-width="1600"
     inkscape:pageshadow="2"
     inkscape:pageopacity="0"
     guidetolerance="10"
     gridtolerance="10"
     objecttolerance="10"
     borderopacity="1"
     bordercolor="#666666"
     pagecolor="#ffffff"
     inkscape:document-rotation="0" />
  <g
     transform="translate(553.17164,-70.291045)"
     id="g841"
     inkscape:label="Image"
     inkscape:groupmode="layer">
    <path
       id="path845"
       d="m -380.56701,372.20852 c -15.13891,-4.07108 -29.72868,-17.73737 -34.60309,-32.41284 -1.59852,-4.8127 -1.9666,-5.15895 -8.87963,-8.35296 -5.48947,-2.5363 -9.49808,-5.51767 -16.78369,-12.48276 l -9.57171,-9.15061 -51.38325,-0.25916 -51.38326,-0.25915 v -7.5 -7.5 l 51.77555,-0.25901 51.77554,-0.25902 1.10592,-2.42721 c 2.49468,-5.47525 2.3712,-5.50045 -28.36962,-5.78912 l -28.28739,-0.26564 v -7.5 -7.5 l 30.5,-0.25641 c 33.14253,-0.27863 33,-0.25304 33,-5.92421 v -2.29836 l -43.75,-0.26051 -43.75,-0.26051 v -7.5 -7.5 l 49.38652,-0.2595 49.38652,-0.25951 7.26938,-7.55799 c 3.99815,-4.15689 6.74922,-7.75143 6.11348,-7.98784 -0.63575,-0.23642 -15.3309,-0.54355 -32.6559,-0.68251 l -31.5,-0.25265 v -11.5 -11.5 l 3.5,-0.5 3.5,-0.5 v -55.5 -55.499995 l -3.5,-0.5 -3.5,-0.5 v -11.5 -11.5 h 103.5 103.5 v 11.5 11.5 l -3.5,0.5 -3.5,0.5 v 55.499995 55.5 l 3.5,0.5 3.5,0.5 v 11.5 11.5 l -3.43081,0.32684 c -2.08462,0.1986 -4.9277,1.60813 -7.24569,3.59224 -2.17718,1.86358 -6.9291,4.28687 -11.06919,5.64483 -3.98987,1.30869 -7.81681,2.78478 -8.50431,3.28021 -1.84807,1.33175 -1.79174,45.96139 0.06,47.49815 3.9845,3.30684 35.15293,8.15773 52.41588,8.15773 19.05685,0 46.46639,-4.08445 49.10745,-7.31778 0.53111,-0.65022 1.14513,-6.80722 1.36449,-13.68222 0.37661,-11.80376 0.61114,-13.00129 4.21072,-21.5 6.38181,-15.06763 6.19814,-16.80099 -9.96024,-94 -2.57395,-12.29744 -1.15018,-11.40573 -18.71956,-11.72407 l -15.22874,-0.27593 v -7.5 -7.5 l 15.30597,-0.27635 c 14.23597,-0.25703 15.79558,-0.0997 22.3096,2.25 3.85199,1.38949 7.61166,2.52635 8.35482,2.52635 0.74316,0 2.35619,-2.07604 3.58451,-4.61342 3.71584,-7.67589 15.02289,-13.10854 25.4451,-12.22549 l 4,0.33891 v 29.5 29.5 l -7.25,0.29381 c -6.70548,0.27174 -7.25,0.45843 -7.25,2.48565 0,7.2538 11.35377,20.71654 19.13198,22.68574 48.93075,12.38773 80.875158,43.59871 91.127038,89.0348 1.17764,5.21929 1.41961,5.52552 4.74098,6 l 3.5,0.5 v 5.90233 5.90233 l -15.5,9.688 c -9.23094,5.76964 -15.97399,10.66261 -16.67193,12.09767 -0.64456,1.32532 -2.63388,5.55967 -4.42072,9.40967 -6.433888,13.86275 -21.228938,25.19287 -36.259168,27.76744 -21.11462,3.61678 -45.13381,-11.82931 -52.21892,-33.58058 -1.20362,-3.69509 -3.01823,-6.39629 -6.3094,-9.39205 l -4.61986,-4.20519 -59.57,-0.0448 -59.57,-0.0448 -4.09433,3.50459 c -2.9991,2.56712 -4.79985,5.35091 -6.73179,10.40675 -3.43233,8.98231 -7.38248,14.83566 -14.24376,21.10648 -12.17741,11.12947 -27.64609,15.30953 -42.18549,11.39966 z m 24.61194,-21.76948 c 6.56766,-3.33359 11.51109,-8.24571 15.02664,-14.93143 2.38137,-4.52877 2.73762,-6.33728 2.70198,-13.71657 -0.0349,-7.23397 -0.4435,-9.27698 -2.74303,-13.71657 -3.41854,-6.60001 -8.33421,-11.52915 -14.98559,-15.02664 -4.52877,-2.38137 -6.33728,-2.73762 -13.71657,-2.70198 -7.23397,0.0349 -9.27698,0.4435 -13.71657,2.74303 -6.62593,3.43196 -11.55363,8.35966 -14.98559,14.98559 -2.29953,4.43959 -2.70809,6.4826 -2.74303,13.71657 -0.0356,7.37929 0.32061,9.1878 2.70198,13.71657 4.54851,8.65017 12.37298,15.0606 21.24321,17.40414 5.72441,1.5124 15.64271,0.35646 21.21657,-2.47271 z m -20.53694,-14.27309 c -10.72491,-5.46807 -12.06499,-19.78415 -2.53252,-27.05491 9.55504,-7.28799 23.72735,-1.04936 25.09054,11.04481 1.34429,11.92645 -11.99656,21.39485 -22.55802,16.0101 z m 252.00097,14.39995 c 6.97722,-3.19428 12.36608,-8.57957 15.69879,-15.68838 2.14974,-4.5855 2.6157,-7.01991 2.60048,-13.58648 -0.0156,-6.75133 -0.44473,-8.81422 -2.74911,-13.21657 -3.6234,-6.92226 -8.82914,-11.96779 -15.64428,-15.16282 -7.99356,-3.74749 -19.41158,-3.7264 -26.58648,0.0491 -6.36676,3.35027 -11.98001,8.96352 -15.33028,15.33028 -3.77551,7.1749 -3.7966,18.59292 -0.0491,26.58648 4.01491,8.56399 11.34974,14.90074 20.87939,18.03827 4.60328,1.51558 15.33895,0.3245 21.1806,-2.34989 z m -19.95795,-14.43578 c -10.11486,-4.98553 -12.2556,-17.54142 -4.3403,-25.45673 4.1238,-4.12379 8.86242,-5.52802 14.85859,-4.40313 4.78559,0.89778 10.90821,7.13369 11.83038,12.04926 2.44133,13.0134 -10.75106,23.52697 -22.34867,17.8106 z M -419.61742,195.92104 c 5.1993,-3.35644 8.65334,-6.94526 16.24347,-16.87729 10.58366,-13.84921 15.21134,-19.13943 16.79185,-19.19591 1.48155,-0.0529 5.08211,4.03968 15.70848,17.85525 9.7072,12.62053 18.92355,19.87662 23.71797,18.67329 6.97466,-1.75052 -0.91519,-13.98939 -16.55973,-25.68772 -7.82344,-5.85005 -17.7693,-14.34246 -18.3522,-15.6703 -0.59513,-1.35567 4.5471,-6.95262 10.69834,-11.6444 l 3.73139,-2.84607 5.51939,1.73606 c 8.8863,2.79508 17.18101,0.16038 23.7851,-7.55501 9.10446,-10.63652 8.89298,-27.00331 -0.41555,-32.15917 -4.53841,-2.51377 -15.63833,-1.99825 -21.42273,0.99493 -11.49314,5.94723 -17.17578,18.27213 -13.40804,29.08029 1.32903,3.81246 -0.5186,7.26906 -7.57006,14.16232 -3.77945,3.69465 -4.7681,4.2295 -5.54537,3 -0.52025,-0.82295 -0.9528,-1.94986 -0.96122,-2.50425 -0.008,-0.55439 -10.56089,-11.5464 -23.44994,-24.4267 -20.27581,-20.26204 -23.64563,-23.243595 -25,-22.11957 -2.05266,1.70355 -1.97561,4.54877 0.30249,11.17018 3.36761,9.78811 6.88148,15.43645 13.31105,21.39667 5.86888,5.44046 22.61704,17.07041 28.33422,19.67533 1.36778,0.62321 2.48687,1.62497 2.48687,2.22615 0,0.60118 -4.57361,4.69145 -10.16359,9.08949 -18.90113,14.87089 -24.72866,20.60096 -27.36267,26.90504 -3.09753,7.41343 1.7272,9.79112 9.58048,4.72139 z"
       style="fill:#ffa500;fill-opacity:1" />
  </g>
</svg>
