<?xml version="1.0" encoding="UTF-8" standalone="no"?>
<svg
   xmlns:dc="http://purl.org/dc/elements/1.1/"
   xmlns:cc="http://creativecommons.org/ns#"
   xmlns:rdf="http://www.w3.org/1999/02/22-rdf-syntax-ns#"
   xmlns:svg="http://www.w3.org/2000/svg"
   xmlns="http://www.w3.org/2000/svg"
   xmlns:sodipodi="http://sodipodi.sourceforge.net/DTD/sodipodi-0.dtd"
   xmlns:inkscape="http://www.inkscape.org/namespaces/inkscape"
   sodipodi:docname="text.svg"
   inkscape:version="1.0 (4035a4fb49, 2020-05-01)"
   id="svg940"
   version="1.1"
   viewBox="0 0 62.237629 63.286568"
   height="63.286568mm"
   width="62.237629mm">
  <defs
     id="defs934">
    <rect
       id="rect1509"
       height="14.4858"
       width="195.74223"
       y="26.459682"
       x="33.94323" />
  </defs>
  <sodipodi:namedview
     inkscape:window-maximized="1"
     inkscape:window-y="-8"
     inkscape:window-x="-8"
     inkscape:window-height="837"
     inkscape:window-width="1600"
     showgrid="false"
     inkscape:document-rotation="0"
     inkscape:current-layer="layer1"
     inkscape:document-units="mm"
     inkscape:cy="260.09677"
     inkscape:cx="274.67847"
     inkscape:zoom="0.98994949"
     inkscape:pageshadow="2"
     inkscape:pageopacity="0.0"
     borderopacity="1.0"
     bordercolor="#666666"
     pagecolor="#ffffff"
     id="base" />
  <metadata
     id="metadata937">
    <rdf:RDF>
      <cc:Work
         rdf:about="">
        <dc:format>image/svg+xml</dc:format>
        <dc:type
           rdf:resource="http://purl.org/dc/dcmitype/StillImage" />
        <dc:title></dc:title>
      </cc:Work>
    </rdf:RDF>
  </metadata>
  <g
     transform="translate(-61.565391,-88.864769)"
     id="layer1"
     inkscape:groupmode="layer"
     inkscape:label="Layer 1">
    <g
       style="font-style:normal;font-weight:normal;font-size:8.72832px;line-height:1.25;font-family:sans-serif;letter-spacing:2.64584px;white-space:pre;fill:#a05a2c;fill-opacity:1;stroke:none;stroke-width:1.21252"
       id="text1507"
       aria-label=" . DISCOVER OUR DISHES ">
      <path
         id="path1534"
         style="font-style:normal;font-variant:normal;font-weight:bold;font-stretch:normal;font-size:8.72832px;font-family:'Nirmala UI';-inkscape-font-specification:'Nirmala UI, Bold';font-variant-ligatures:normal;font-variant-caps:normal;font-variant-numeric:normal;font-variant-east-asian:normal;fill:#a05a2c;fill-opacity:1;stroke-width:1.47022"
         d="m 117.01486,126.53643 q 0.0802,-0.32263 0.33211,-0.48839 0.25197,-0.16576 0.5415,-0.0938 0.2978,0.074 0.43361,0.34046 0.13478,0.27062 0.0526,0.60151 -0.0832,0.33503 -0.33003,0.49769 -0.24369,0.16781 -0.53736,0.0949 -0.30194,-0.075 -0.44188,-0.34251 -0.13684,-0.26235 -0.0505,-0.60978 z" />
      <path
         id="path1536"
         style="font-style:normal;font-variant:normal;font-weight:bold;font-stretch:normal;font-size:8.72832px;font-family:'Nirmala UI';-inkscape-font-specification:'Nirmala UI, Bold';font-variant-ligatures:normal;font-variant-caps:normal;font-variant-numeric:normal;font-variant-east-asian:normal;fill:#a05a2c;fill-opacity:1;stroke-width:1.47022"
         d="m 113.22077,135.30384 4.60006,4.02372 -1.42542,1.62959 q -2.14374,2.45079 -4.38602,0.48944 -1.07463,-0.93999 -1.12976,-2.17162 -0.0579,-1.22842 0.91573,-2.34154 z m 2.85007,4.32189 -2.91593,-2.5506 -0.44895,0.51326 q -0.58925,0.67365 -0.51897,1.40893 0.0675,0.73849 0.76358,1.34738 0.65761,0.57522 1.36684,0.52178 0.70962,-0.0474 1.31009,-0.73391 z" />
      <path
         id="path1538"
         style="font-style:normal;font-variant:normal;font-weight:bold;font-stretch:normal;font-size:8.72832px;font-family:'Nirmala UI';-inkscape-font-specification:'Nirmala UI, Bold';font-variant-ligatures:normal;font-variant-caps:normal;font-variant-numeric:normal;font-variant-east-asian:normal;fill:#a05a2c;fill-opacity:1;stroke-width:1.47022"
         d="m 105.4998,142.29159 1.15937,-0.74219 3.29504,5.14718 -1.15937,0.74219 z" />
      <path
         id="path1540"
         style="font-style:normal;font-variant:normal;font-weight:bold;font-stretch:normal;font-size:8.72832px;font-family:'Nirmala UI';-inkscape-font-specification:'Nirmala UI, Bold';font-variant-ligatures:normal;font-variant-caps:normal;font-variant-numeric:normal;font-variant-east-asian:normal;fill:#a05a2c;fill-opacity:1;stroke-width:1.47022"
         d="m 102.25217,144.275 0.42222,1.29679 q -0.44889,-0.18104 -0.91106,-0.1964 -0.46086,-0.0113 -0.88231,0.12591 -0.24721,0.0805 -0.41506,0.18443 -0.1719,0.10527 -0.2684,0.22185 -0.0992,0.12195 -0.12573,0.24711 -0.0252,0.12921 0.0157,0.25484 0.0554,0.1702 0.19622,0.27227 0.1408,0.10206 0.34795,0.16012 0.20309,0.0594 0.46839,0.0895 0.2653,0.0302 0.56839,0.0525 0.77317,0.062 1.24279,0.3618 0.46557,0.30111 0.65424,0.88062 0.14778,0.45388 0.071,0.83745 -0.0755,0.38763 -0.31893,0.69995 -0.24748,0.31365 -0.62917,0.54549 -0.38037,0.23589 -0.84236,0.3863 -0.45387,0.14777 -0.82086,0.20451 -0.36972,0.0621 -0.7025,0.045 l -0.3945,-1.21169 q 0.17887,0.0538 0.3782,0.0741 0.19527,0.0216 0.39347,0.0108 0.19951,-0.007 0.38979,-0.0418 0.18623,-0.0337 0.34833,-0.0865 0.22289,-0.0726 0.39074,-0.17652 0.16916,-0.0999 0.26972,-0.2178 0.10056,-0.1179 0.13383,-0.24975 0.0346,-0.12779 -0.009,-0.26152 -0.0475,-0.14589 -0.16276,-0.23835 -0.11394,-0.0884 -0.29008,-0.14758 -0.17483,-0.0551 -0.41044,-0.0905 -0.23429,-0.0313 -0.5239,-0.0535 -0.39601,-0.0324 -0.72568,-0.10885 -0.332398,-0.0711 -0.59826,-0.21309 -0.265863,-0.14203 -0.458308,-0.37519 -0.191127,-0.22911 -0.305916,-0.58167 -0.158329,-0.4863 -0.08011,-0.8793 0.07549,-0.38763 0.324296,-0.69722 0.250124,-0.30554 0.642557,-0.53191 0.388381,-0.22505 0.854421,-0.37679 0.47819,-0.15569 0.9382,-0.21581 0.45595,-0.0588 0.82482,3.8e-4 z" />
      <path
         id="path1542"
         style="font-style:normal;font-variant:normal;font-weight:bold;font-stretch:normal;font-size:8.72832px;font-family:'Nirmala UI';-inkscape-font-specification:'Nirmala UI, Bold';font-variant-ligatures:normal;font-variant-caps:normal;font-variant-numeric:normal;font-variant-east-asian:normal;fill:#a05a2c;fill-opacity:1;stroke-width:1.47022"
         d="m 90.212102,146.17114 q 0.665566,-0.33114 1.743757,-0.34282 1.406336,-0.0152 2.220741,0.8028 0.814404,0.81802 0.829316,2.19453 0.01588,1.466 -0.877701,2.38777 -0.897846,0.92183 -2.342537,0.93748 -0.894941,0.01 -1.511062,-0.20952 l -0.01436,-1.32537 q 0.617645,0.35985 1.401784,0.35136 0.860848,-0.009 1.383426,-0.55628 0.522578,-0.54695 0.512559,-1.47173 -0.0096,-0.88641 -0.513939,-1.40945 -0.504289,-0.51878 -1.34809,-0.50964 -0.805448,0.009 -1.470275,0.40804 z" />
      <path
         id="path1544"
         style="font-style:normal;font-variant:normal;font-weight:bold;font-stretch:normal;font-size:8.72832px;font-family:'Nirmala UI';-inkscape-font-specification:'Nirmala UI, Bold';font-variant-ligatures:normal;font-variant-caps:normal;font-variant-numeric:normal;font-variant-east-asian:normal;fill:#a05a2c;fill-opacity:1;stroke-width:1.47022"
         d="m 84.205148,144.49248 q 1.243252,0.42118 1.752844,1.49378 0.508225,1.07663 0.0679,2.37639 -0.464942,1.37242 -1.547308,1.9507 -1.082367,0.57828 -2.39424,0.13385 -1.239215,-0.41981 -1.727257,-1.48961 -0.492079,-1.07116 -0.04218,-2.39918 0.462206,-1.36435 1.54047,-1.93052 1.074228,-0.56753 2.349771,-0.13541 z m -1.704318,4.84488 q 0.686211,0.23247 1.2649,-0.14746 0.577323,-0.37589 0.864492,-1.22357 0.291272,-0.85978 0.05719,-1.49706 -0.234086,-0.63727 -0.888005,-0.8588 -0.674101,-0.22837 -1.233778,0.122 -0.561044,0.35441 -0.853684,1.21823 -0.304946,0.90014 -0.09104,1.53058 0.213904,0.63044 0.879932,0.85608 z" />
      <path
         id="path1546"
         style="font-style:normal;font-variant:normal;font-weight:bold;font-stretch:normal;font-size:8.72832px;font-family:'Nirmala UI';-inkscape-font-specification:'Nirmala UI, Bold';font-variant-ligatures:normal;font-variant-caps:normal;font-variant-numeric:normal;font-variant-east-asian:normal;fill:#a05a2c;fill-opacity:1;stroke-width:1.47022"
         d="m 70.347123,143.32415 5.46181,-3.45716 1.218049,0.97441 -2.193714,6.07157 -1.158144,-0.92649 1.661931,-4.11738 q 0.135776,-0.33347 0.284201,-0.55312 l -0.01997,-0.016 q -0.201672,0.20434 -0.494531,0.40668 l -3.63477,2.51733 z" />
      <path
         id="path1548"
         style="font-style:normal;font-variant:normal;font-weight:bold;font-stretch:normal;font-size:8.72832px;font-family:'Nirmala UI';-inkscape-font-specification:'Nirmala UI, Bold';font-variant-ligatures:normal;font-variant-caps:normal;font-variant-numeric:normal;font-variant-east-asian:normal;fill:#a05a2c;fill-opacity:1;stroke-width:1.47022"
         d="m 69.965595,132.86202 2.034545,3.04867 -5.083487,3.39249 -1.956474,-2.93169 0.932327,-0.6222 1.192337,1.78667 1.130846,-0.75468 -1.109537,-1.66259 0.928782,-0.61982 1.109537,1.66259 1.16275,-0.77597 -1.270408,-1.90365 z" />
      <path
         id="path1550"
         style="font-style:normal;font-variant:normal;font-weight:bold;font-stretch:normal;font-size:8.72832px;font-family:'Nirmala UI';-inkscape-font-specification:'Nirmala UI, Bold';font-variant-ligatures:normal;font-variant-caps:normal;font-variant-numeric:normal;font-variant-east-asian:normal;fill:#a05a2c;fill-opacity:1;stroke-width:1.47022"
         d="m 66.988582,124.6304 0.438274,1.5192 -1.247573,1.34907 q -0.142452,0.15199 -0.250412,0.28516 -0.107961,0.13316 -0.173791,0.25861 -0.07111,0.12254 -0.08953,0.24318 -0.0237,0.11773 0.01174,0.24057 l 0.102776,0.35626 2.248089,-0.64855 0.38157,1.32264 -5.872057,1.69403 -0.604841,-2.09658 q -0.616655,-2.13752 0.980347,-2.59824 0.307116,-0.0886 0.596359,-0.07 0.285148,0.0198 0.543603,0.13149 0.258455,0.11174 0.480845,0.31372 0.221209,0.19789 0.393439,0.47201 l 0.01638,-0.005 q 0.0031,-0.14285 0.06189,-0.29286 0.05465,-0.14884 0.144416,-0.29894 0.08977,-0.15009 0.203557,-0.29381 0.108511,-0.14663 0.218834,-0.27161 z m -3.841524,5.01164 1.633857,-0.47135 -0.165387,-0.57328 q -0.122858,-0.42587 -0.442975,-0.61296 -0.325393,-0.19002 -0.693932,-0.0837 -0.769837,0.22209 -0.504037,1.14344 z" />
      <path
         id="path1552"
         style="font-style:normal;font-variant:normal;font-weight:bold;font-stretch:normal;font-size:8.72832px;font-family:'Nirmala UI';-inkscape-font-specification:'Nirmala UI, Bold';font-variant-ligatures:normal;font-variant-caps:normal;font-variant-numeric:normal;font-variant-east-asian:normal;fill:#a05a2c;fill-opacity:1;stroke-width:1.47022"
         d="m 67.773724,113.86278 q -0.338315,1.26831 -1.374988,1.8475 -1.040791,0.57808 -2.366752,0.22439 -1.400084,-0.37346 -2.048452,-1.41536 -0.648367,-1.04189 -0.291379,-2.38021 0.337216,-1.26419 1.372515,-1.82169 1.036397,-0.56161 2.391184,-0.20023 1.391848,0.37127 2.027862,1.40986 0.637112,1.03448 0.29001,2.33574 z m -4.946683,-1.38125 q -0.186732,0.70004 0.230516,1.25243 0.413129,0.55129 1.277887,0.78195 0.877111,0.23397 1.497572,-0.0416 0.620462,-0.27558 0.798406,-0.94268 0.183437,-0.68769 -0.203064,-1.22305 -0.390619,-0.53646 -1.271848,-0.77153 -0.918291,-0.24495 -1.53326,0.01 -0.614969,0.25499 -0.796209,0.93445 z" />
      <path
         id="path1554"
         style="font-style:normal;font-variant:normal;font-weight:bold;font-stretch:normal;font-size:8.72832px;font-family:'Nirmala UI';-inkscape-font-specification:'Nirmala UI, Bold';font-variant-ligatures:normal;font-variant-caps:normal;font-variant-numeric:normal;font-variant-east-asian:normal;fill:#a05a2c;fill-opacity:1;stroke-width:1.47022"
         d="m 70.846102,102.02167 q 2.242777,1.59684 0.754699,3.68686 -1.443584,2.02752 -3.634285,0.46776 l -2.874643,-2.04673 0.800893,-1.12486 2.88853,2.05662 q 1.208184,0.86021 1.880538,-0.0841 0.659995,-0.92697 -0.506527,-1.75753 l -2.930192,-2.08627 0.79842,-1.12139 z" />
      <path
         id="path1556"
         style="font-style:normal;font-variant:normal;font-weight:bold;font-stretch:normal;font-size:8.72832px;font-family:'Nirmala UI';-inkscape-font-specification:'Nirmala UI, Bold';font-variant-ligatures:normal;font-variant-caps:normal;font-variant-numeric:normal;font-variant-east-asian:normal;fill:#a05a2c;fill-opacity:1;stroke-width:1.47022"
         d="m 80.066787,97.823562 -1.291576,0.912077 -1.683498,-0.736384 q -0.190288,-0.08476 -0.351486,-0.143095 -0.161199,-0.05834 -0.301295,-0.07941 -0.139073,-0.02701 -0.259089,-0.0049 -0.118993,0.0162 -0.223433,0.08996 l -0.302877,0.213884 1.349678,1.911253 -1.124472,0.794073 -3.525387,-4.992236 1.782444,-1.258716 q 1.817258,-1.2833 2.776045,0.07442 0.184382,0.2611 0.261651,0.540449 0.07481,0.275869 0.05397,0.556671 -0.02084,0.280802 -0.138754,0.557117 -0.114437,0.273857 -0.316948,0.52643 l 0.0098,0.01393 q 0.135987,-0.04386 0.296971,-0.03754 0.158525,0.0028 0.329756,0.03844 0.17123,0.0356 0.344308,0.09599 0.174102,0.05445 0.328338,0.117703 z m -5.994024,-1.986336 0.980914,1.389054 0.487387,-0.34418 q 0.362059,-0.255677 0.433877,-0.619438 0.07284,-0.369701 -0.148417,-0.683022 -0.462185,-0.654491 -1.245486,-0.101344 z" />
      <path
         id="path1558"
         style="font-style:normal;font-variant:normal;font-weight:bold;font-stretch:normal;font-size:8.72832px;font-family:'Nirmala UI';-inkscape-font-specification:'Nirmala UI, Bold';font-variant-ligatures:normal;font-variant-caps:normal;font-variant-numeric:normal;font-variant-east-asian:normal;fill:#a05a2c;fill-opacity:1;stroke-width:1.47022"
         d="m 87.9154,95.138142 -0.453129,-6.094707 2.159074,-0.160523 q 3.24711,-0.241416 3.467987,2.729435 0.105856,1.423799 -0.719226,2.339869 -0.820832,0.915755 -2.295633,1.025403 z m 1.002773,-5.078984 0.287234,3.863382 0.680024,-0.05056 q 0.89253,-0.06636 1.358482,-0.639478 0.470203,-0.573437 0.401633,-1.495719 -0.06478,-0.87128 -0.607515,-1.330944 -0.538804,-0.46423 -1.448335,-0.396608 z" />
      <path
         id="path1560"
         style="font-style:normal;font-variant:normal;font-weight:bold;font-stretch:normal;font-size:8.72832px;font-family:'Nirmala UI';-inkscape-font-specification:'Nirmala UI, Bold';font-variant-ligatures:normal;font-variant-caps:normal;font-variant-numeric:normal;font-variant-east-asian:normal;fill:#a05a2c;fill-opacity:1;stroke-width:1.47022"
         d="m 98.320461,95.575021 -1.346883,-0.284417 1.262705,-5.979662 1.346883,0.284417 z" />
      <path
         id="path1562"
         style="font-style:normal;font-variant:normal;font-weight:bold;font-stretch:normal;font-size:8.72832px;font-family:'Nirmala UI';-inkscape-font-specification:'Nirmala UI, Bold';font-variant-ligatures:normal;font-variant-caps:normal;font-variant-numeric:normal;font-variant-east-asian:normal;fill:#a05a2c;fill-opacity:1;stroke-width:1.47022"
         d="m 102.0257,96.442368 0.60954,-1.220006 q 0.19264,0.444032 0.51104,0.779385 0.3203,0.331541 0.7168,0.529641 0.23257,0.116193 0.42508,0.159971 0.19633,0.04568 0.3469,0.03039 0.15628,-0.0172 0.26299,-0.08776 0.10862,-0.07437 0.16767,-0.192554 0.08,-0.160125 0.0514,-0.331654 -0.0286,-0.171528 -0.13543,-0.358281 -0.10298,-0.184847 -0.27077,-0.392547 -0.16779,-0.207699 -0.36798,-0.436354 -0.50717,-0.586884 -0.63123,-1.130047 -0.12024,-0.541258 0.15215,-1.086448 0.21334,-0.427002 0.53729,-0.646288 0.32585,-0.223097 0.71846,-0.274678 0.39643,-0.04968 0.83102,0.05311 0.4365,0.09898 0.87113,0.316125 0.427,0.213339 0.72821,0.430527 0.30692,0.215281 0.5319,0.461082 l -0.56953,1.139943 q -0.0896,-0.163886 -0.21738,-0.31823 -0.12394,-0.15244 -0.27264,-0.283906 -0.1468,-0.135279 -0.30694,-0.243871 -0.15632,-0.106686 -0.30882,-0.182879 -0.20969,-0.104764 -0.4022,-0.148542 -0.19062,-0.04759 -0.345,-0.0342 -0.15437,0.01339 -0.27062,0.08395 -0.11433,0.06674 -0.17719,0.192557 -0.0686,0.13725 -0.0514,0.284005 0.0191,0.142941 0.10302,0.308735 0.0858,0.161981 0.22882,0.352534 0.14491,0.186741 0.33558,0.405869 0.2593,0.301064 0.44045,0.586904 0.18688,0.283933 0.27654,0.571706 0.0897,0.287774 0.0631,0.588925 -0.0247,0.297339 -0.1904,0.629028 -0.22858,0.457502 -0.56015,0.682508 -0.32585,0.223098 -0.72037,0.268961 -0.39262,0.04205 -0.83103,-0.07217 -0.43459,-0.11232 -0.87303,-0.331372 -0.44988,-0.224767 -0.81972,-0.504832 -0.36603,-0.27816 -0.58722,-0.579235 z" />
      <path
         id="path1564"
         style="font-style:normal;font-variant:normal;font-weight:bold;font-stretch:normal;font-size:8.72832px;font-family:'Nirmala UI';-inkscape-font-specification:'Nirmala UI, Bold';font-variant-ligatures:normal;font-variant-caps:normal;font-variant-numeric:normal;font-variant-east-asian:normal;fill:#a05a2c;fill-opacity:1;stroke-width:1.47022"
         d="m 112.38417,104.38016 -0.96898,-0.98378 1.77323,-1.74656 -1.77647,-1.803587 -1.77322,1.746557 -0.96599,-0.98074 4.35412,-4.288637 0.96599,0.98074 -1.73679,1.71067 1.77646,1.803587 1.73679,-1.710666 0.96899,0.983776 z" />
      <path
         id="path1566"
         style="font-style:normal;font-variant:normal;font-weight:bold;font-stretch:normal;font-size:8.72832px;font-family:'Nirmala UI';-inkscape-font-specification:'Nirmala UI, Bold';font-variant-ligatures:normal;font-variant-caps:normal;font-variant-numeric:normal;font-variant-east-asian:normal;fill:#a05a2c;fill-opacity:1;stroke-width:1.47022"
         d="m 116.19817,111.08461 -1.60329,-3.29594 5.49579,-2.6734 1.54177,3.16947 -1.00795,0.49031 -0.9396,-1.93157 -1.22257,0.59471 0.87436,1.79743 -1.00411,0.48845 -0.87436,-1.79744 -1.25705,0.61149 1.00112,2.05805 z" />
      <path
         id="path1568"
         style="font-style:normal;font-variant:normal;font-weight:bold;font-stretch:normal;font-size:8.72832px;font-family:'Nirmala UI';-inkscape-font-specification:'Nirmala UI, Bold';font-variant-ligatures:normal;font-variant-caps:normal;font-variant-numeric:normal;font-variant-east-asian:normal;fill:#a05a2c;fill-opacity:1;stroke-width:1.47022"
         d="m 117.44506,114.26072 1.3463,-0.21779 q -0.24792,0.41571 -0.33416,0.87002 -0.082,0.45364 -0.0113,0.89118 0.0415,0.25664 0.11843,0.43848 0.0776,0.18604 0.17794,0.29932 0.10524,0.11682 0.22483,0.16223 0.12381,0.0447 0.25423,0.0236 0.1767,-0.0286 0.2992,-0.15202 0.12251,-0.12343 0.21172,-0.31919 0.0899,-0.19155 0.16049,-0.44905 0.0706,-0.25751 0.13927,-0.55356 0.18016,-0.75445 0.5486,-1.17238 0.36911,-0.41373 0.97074,-0.51106 0.4712,-0.0762 0.83841,0.0587 0.3714,0.1342 0.64258,0.42276 0.27186,0.29277 0.44226,0.70557 0.1746,0.41211 0.25218,0.89173 0.0762,0.47121 0.0759,0.84255 0.005,0.37488 -0.0636,0.70106 l -1.25794,0.20349 q 0.0807,-0.16847 0.13135,-0.36231 0.0513,-0.18963 0.0712,-0.38712 0.0241,-0.19817 0.0187,-0.39158 -0.005,-0.1892 -0.0319,-0.35749 -0.0374,-0.23139 -0.11434,-0.41323 -0.0727,-0.18252 -0.17373,-0.30001 -0.10104,-0.11749 -0.2262,-0.17063 -0.12096,-0.0538 -0.25979,-0.0314 -0.15146,0.0245 -0.26054,0.12417 -0.10487,0.099 -0.19043,0.26394 -0.0814,0.16427 -0.15251,0.39164 -0.0669,0.2267 -0.13345,0.50945 -0.0929,0.38631 -0.21915,0.70031 -0.12132,0.31752 -0.30254,0.55838 -0.18122,0.24086 -0.44119,0.39517 -0.25577,0.15362 -0.6218,0.21283 -0.50486,0.0817 -0.88116,-0.056 -0.37141,-0.1342 -0.63906,-0.42765 -0.26344,-0.29413 -0.42678,-0.7167 -0.16266,-0.41837 -0.24093,-0.9022 -0.0803,-0.49644 -0.069,-0.96022 0.012,-0.45958 0.1272,-0.81496 z" />
    </g>
  </g>
</svg>
